#!OML:ASF E:/inclinewalkrobotboard/Project1/Captureday1/Session1/subject1.ASF
:FULLY-SPECIFIED
:DEGREES
1
root 0 0 0 -1.6927971197724714 -6.233798608649531 -6.728893046573422
lowerback 10.336651195273541 2.0347083599781013 5.796128021566381
upperback 0.5213241520918298 3.5033691130463707 2.009418050184917
thorax -5.0406614869598645 1.6131658419193982 -1.6421731751841717
lowerneck -18.310892028972248 -3.350565258546615 -1.9970771251519408
upperneck 21.74644395953393 -4.34051082697546 0.5215548347860057
head 9.955757520728454 -2.059752796794036 -0.08477820138565528
rclavicle -6.2698083313796865E-15 -1.0489168382464676E-16
rhumerus -31.163349942040973 -17.318641666689196 -80.11853470371365
rradius 24.235145803313706
rwrist 3.218257667061759
rhand -18.593887056967457 26.207011676485024
rfingers 7.125020000000015
rthumb 7.696000149883844 -3.6544804176256775
lclavicle -7.205524954047922E-15 -7.884277907632083E-16
lhumerus -35.385136541262675 3.1627067254774017 83.8110910796802
lradius 24.132261651231907
lwrist 4.960276403441847
lhand -27.28592047817361 24.98943838971342
lfingers 7.12502000000003
lthumb -0.7025492441441878 55.000267316034524
rfemur 8.105252826403376 7.574252906937657 34.2807565672315
rtibia 29.810365279845243
rfoot -16.485435839901545 -2.528379348104421
rtoes -3.9428538673982283
lfemur -26.181759347479264 -3.9989080015332883 -13.521943901832833
ltibia 22.124734497140647
lfoot -4.916472918507628 2.772918975771129
ltoes 0.8936966361335195
2
root 0 0 0 -2.015169167777783 -6.138400831980736 -5.9642989948309175
lowerback 10.405012526259647 2.056541955908725 5.2264146426485025
upperback 0.45886409304733655 3.457033248529134 1.8213231731671646
thorax -5.16524324364979 1.6023805341656856 -1.5159545060101824
lowerneck -18.109677176446993 -3.390988989013944 -1.9863517634503043
upperneck 21.255701579800906 -4.379311281788265 0.5683922201327147
head 9.749494051677939 -2.085429028020325 -0.07000919265121586
rclavicle -6.52685224474623E-15 -7.565172598354265E-16
rhumerus -31.653436355463118 -18.052939123838 -79.9345843710445
rradius 23.554362755774356
rwrist 4.010507537295568
rhand -18.506269029697933 26.075405250921378
rfingers 7.125020000000017
rthumb 7.7801232943526335 -3.775800803682486
lclavicle -7.951027080956061E-15 -1.445134103093668E-15
lhumerus -36.8463466197009 4.8364485040062295 82.77797209690492
lradius 23.1159670993816
lwrist 3.885356149618932
lhand -26.773777873002494 24.669695262056532
lfingers 7.1250200000000286
lthumb -0.2079143230643492 54.669988359683465
rfemur 3.186688465795771 4.589233388149962 27.803091481163904
rtibia 39.91799841055007
rfoot -6.645629679570492 -0.6488607573826974
rtoes -2.5113058102528294
lfemur -25.99748811127942 -3.2053012700431527 -14.231932758743142
ltibia 22.734677356348882
lfoot -4.764092053030996 1.8145111199104516
ltoes 0.5653411646958197
3
root 0 0 0 -2.7724524626783627 -6.005820337112601 -3.756532081840703
lowerback 10.705194272155989 2.068132224005615 3.379039044551133
upperback 0.32137309087620036 3.230181181882945 1.2858236180285734
thorax -5.5498483279392055 1.5291758431611502 -1.0192453008607272
lowerneck -17.17186264016409 -3.418902555927527 -1.876569968108468
upperneck 19.329341521455603 -4.355544723602542 0.6621981330520066
head 8.91268222834539 -2.1085706644421034 -0.029271609607608606
rclavicle -5.1557224322916706E-15 -1.3035729583052914E-15
rhumerus -32.371119014703375 -19.342818255911773 -79.49756188416075
rradius 22.3917078871455
rwrist 5.114152162039617
rhand -18.330081668008987 25.960834215287782
rfingers 7.12502000000002
rthumb 7.949233419647466 -3.8768502661770015
lclavicle -6.675836707992984E-15 -1.828785098435886E-15
lhumerus -38.121702769583386 6.57354132509315 81.4769717201459
lradius 22.150996884035113
lwrist 2.84842086614834
lhand -26.32062517482135 24.26076808232847
lfingers 7.125020000000027
lthumb 0.22933930860306262 54.24861154128586
rfemur -5.736965772357659 2.7050237549360485 24.02704477485251
rtibia 55.704073701952055
rfoot 7.587407605350853 -0.2776156727241017
rtoes 7.050680425125606
lfemur -24.958718844344432 -2.374896292535783 -15.313172130633044
ltibia 23.481604549832557
lfoot -5.118048098931128 0.9196185259608862
ltoes 0.6880705380681462
4
root 0 0 0 -3.6928124294496887 -5.589503116907417 -1.737117742605973
lowerback 9.933700902961606 1.8406460400810318 1.2660908202667005
upperback 0.049348716371600126 2.6502917683875924 0.9407314532001643
thorax -5.483137104428936 1.295282440377561 -0.09961174538366946
lowerneck -16.315450849199028 -2.954823479015947 -1.6125227021173534
upperneck 21.854641517255388 -3.849300493139923 0.7298910305768733
head 9.6693129338991 -1.8204212604785728 4.1496221413117595E-4
rclavicle -4.148801198088211E-15 -1.3769141526259284E-15
rhumerus -33.16784734722903 -20.915545992829223 -78.90570088926707
rradius 20.99888457040293
rwrist 6.137223754369654
rhand -18.122098049925388 25.87376178990369
rfingers 7.125020000000022
rthumb 8.148400104724882 -3.947935286615568
lclavicle -5.475107644337594E-15 -1.7689227463653122E-15
lhumerus -38.38849345526411 7.365894284552572 80.71260320512437
lradius 21.75525950286144
lwrist 2.6201680489094175
lhand -26.348322868822862 23.969058901980492
lfingers 7.125020000000024
lthumb 0.20195080084470796 53.95004678407797
rfemur -11.891634468229126 2.3109721555871174 26.483160911605733
rtibia 68.92415716835927
rfoot 8.678511925382809 -2.464828624999783
rtoes 15.021729574464814
lfemur -20.403206398924684 -2.1211326153547936 -18.37053466806089
ltibia 23.553990367867804
lfoot -6.269437274875534 -0.05262616284175925
ltoes 4.108437126464999
5
root 0 0 0 -4.490922549726252 -4.976339621365562 0.3032500912712055
lowerback 10.817556029873 1.1114851630681386 -1.0309036938915375
upperback 0.09972607427128705 1.3983859173766802 0.6803921518897127
thorax -5.984806338947121 0.726132585232951 1.1022504437487743
lowerneck -16.641707941112184 -2.650284865791544 -1.569710263312241
upperneck 20.855291199691916 -3.4039980280252147 0.4472716166153039
head 9.484199189774488 -1.6300110389610958 -0.034480345409651225
rclavicle -3.951437262273888E-15 1.1622560448908086E-15
rhumerus -34.138157330399224 -22.250849699578552 -78.55656600410013
rradius 19.700035029635373
rwrist 7.06697894758243
rhand -17.909477114711883 25.796846859708694
rfingers 7.125020000000022
rthumb 8.352790325988362 -3.9940339039429062
lclavicle -4.53091333636607E-15 6.942530271595202E-16
lhumerus -37.60161598950187 7.289334624603007 80.21092164397436
lradius 21.93709654730957
lwrist 2.633204160025902
lhand -26.522443298804163 23.757060538646897
lfingers 7.125020000000022
lthumb 0.02960987762786793 53.74051878943334
rfemur -14.35074259109743 1.3563342489056855 26.090734504205983
rtibia 69.93006915218132
rfoot 4.388782947078601 -3.4325256774835378
rtoes 14.516924492873242
lfemur -5.396289733649015 -3.278769614079649 -25.123306151740977
ltibia 21.305214719419684
lfoot -12.190126279879753 -0.062231779533044485
ltoes 4.876443394450845
6
root 0 0 0 -4.749459650998597 -4.073912084163474 1.093465145483432
lowerback 11.626521934289816 0.47912354754599906 -2.0323530358483923
upperback 0.23432207389558946 0.44008084651910373 0.6830171512551342
thorax -6.324397136452373 0.27355454981783545 1.8026344007897608
lowerneck -17.465728975113873 -2.6536482429952444 -1.8246410216540179
upperneck 18.21467175825773 -3.275571660784175 0.24252837922473414
head 8.710248308333068 -1.630251534794617 -0.027386811926633947
rclavicle -3.3715810581604056E-15 1.1857739185481934E-15
rhumerus -34.19912298958157 -22.43336350740769 -78.53108034247259
rradius 19.5632932912539
rwrist 7.2789718786524995
rhand -17.886033206108785 25.761260962777925
rfingers 7.125020000000023
rthumb 8.376619447023725 -4.035925901513323
lclavicle -3.7833133268458885E-15 9.430368655678134E-16
lhumerus -36.41034417956256 6.3857067951632445 80.13189115643256
lradius 22.75244014431581
lwrist 2.986188513027324
lhand -26.665026063545202 23.99480815738265
lfingers 7.1250200000000214
lthumb -0.11002329352685702 53.974713361807176
rfemur -20.745706777027106 0.3045149769520976 23.48707895784544
rtibia 65.19147282422637
rfoot -1.7862178895209309 -4.648134136410079
rtoes 9.839122159463749
lfemur 2.4405295841687407 -3.59430652955971 -27.539017565379595
ltibia 20.3910060210107
lfoot -16.62613905380149 0.7296436624516849
ltoes -0.632269908031784
7
root 0 0 0 -4.306912643487408 -2.9831279005668674 1.566875717019213
lowerback 11.110202300401196 -0.11249170029294397 -2.727406650044923
upperback 0.3023986161853304 -0.4326500158136175 0.8447978127819399
thorax -5.960554202513156 -0.13603726555836315 2.4933823280130447
lowerneck -17.55638650437706 -2.509994076070968 -2.1107319908017614
upperneck 18.406862746119305 -3.0200239921224417 0.23913709185958165
head 8.733780589913408 -1.528269979309911 0.04960332349143545
rclavicle -2.9434866236663066E-15 5.379950407193831E-16
rhumerus -34.20563354088821 -22.304448703423454 -78.57178241110779
rradius 19.7432085356441
rwrist 7.221313426570247
rhand -17.93216753640726 25.749417605103027
rfingers 7.125020000000023
rthumb 8.332407733706994 -4.060441024973493
lclavicle -3.199581550988028E-15 2.601707324520127E-16
lhumerus -33.98257400821283 3.982248800075801 80.07589639854866
lradius 25.025306805187775
lwrist 4.161894201996761
lhand -27.008613530743062 24.619752062734765
lfingers 7.125020000000017
lthumb -0.44269958250493247 54.6015939365101
rfemur -32.15751809332472 -0.472449890054242 20.304967333443713
rtibia 61.17276552317948
rfoot -5.923002986704651 -7.718649826981668
rtoes 3.6066713219468847
lfemur 5.065153891923745 -3.4322813875890583 -28.519697037406843
ltibia 20.25126715278999
lfoot -18.195407875027364 0.9206418820490847
ltoes -1.5876108418443486
8
root 0 0 0 -3.1706428675930836 -1.8991678247483046 2.049979172826846
lowerback 10.607066146154018 -0.6398442471676767 -3.4461765998662583
upperback 0.5668533621196521 -1.2100023968465352 1.0359349596005534
thorax -5.340096666039631 -0.5028977720763954 3.2041300575317746
lowerneck -16.791630881780566 -2.3524312233734763 -2.096347917685826
upperneck 18.80674088131569 -2.7500113151451857 0.16786993708482778
head 8.667094877320812 -1.4143313633735262 0.060557700368989775
rclavicle -1.9568188177550047E-15 -1.5694271379583129E-16
rhumerus -34.392227476699205 -22.168510714596422 -78.63068387066888
rradius 19.953688421510776
rwrist 7.107858438679574
rhand -18.004430950275893 25.703276093275228
rfingers 7.125020000000024
rthumb 8.261884147154777 -4.118871770770674
lclavicle -2.0064877032210974E-15 -7.460807937287101E-16
lhumerus -30.207389824119286 -0.0214577050376486 80.0867951208561
lradius 28.825315952776364
lwrist 6.213987101566362
lhand -27.58321665823044 25.585722168152664
lfingers 7.125020000000008
lthumb -0.9986010337957074 55.58284286845435
rfemur -34.827486552562846 -0.005560902454986305 18.40220396847725
rtibia 52.41252657144018
rfoot -7.20440398229649 -9.199793113023052
rtoes 0.7483334274947124
lfemur 6.043011274816529 -3.079179154376111 -28.95041688624344
ltibia 20.16257140015197
lfoot -18.72056645466315 0.8657179634676124
ltoes -1.3741343183597188
